# xmcd
#
# Track frame offsets:
#	150
#	13270
#	30105
#	46780
#	62990
#	80697
#	95922
#	110117
#	127915
#	144240
#	159155
#	175407
#	191665
#	207792
#	226877
#	242257
#	261505
#	273125
#	283967
#	295965
#
# Disc length: 4146 seconds
#
# Revision: 3
# Processed by: cddbd v1.5.2PL0 Copyright (c) Steve Scherf et al.
# Submitted via: EZCDAudioConverter 2.7.0.1
#
DISCID=1e103014
DTITLE=Don Williams - Love Stories
DYEAR=1996
DGENRE=Country
TTITLE0=True Love
TTITLE1=Darlin' That's What Your Love Does
TTITLE2=Come A Little Closer
TTITLE3=Just 'Cause I'm In Love With You
TTITLE4=Loving You's Like Coming Home
TTITLE5=So Far, So Good
TTITLE6=Lone Star State Of Mind
TTITLE7=Gettin' Back Together Tonight
TTITLE8=Standing Knee Deep In A River (Dying Of Thirst)
TTITLE9=It's Who You Love
TTITLE10=Learn To Let It Go
TTITLE11=Cryin' Eyes
TTITLE12=I've Been Loved By The Best
TTITLE13=If You Love Me, Won't You Love Me Like You Love Me
TTITLE14=Only Water (Shining In The Air)
TTITLE15=Maybe That's All It Takes
TTITLE16=Back On The Street Again
TTITLE17=We're All The Way
TTITLE18=Flowers Won't Grow (In Gardens Of Stone)
TTITLE19=Just As Long As I Have You
EXTD=
EXTT0=
EXTT1=
EXTT2=
EXTT3=
EXTT4=
EXTT5=
EXTT6=
EXTT7=
EXTT8=
EXTT9=
EXTT10=
EXTT11=
EXTT12=
EXTT13=
EXTT14=
EXTT15=
EXTT16=
EXTT17=
EXTT18=
EXTT19=
PLAYORDER=
